<?xml version="1.0" standalone="no"?>
<!DOCTYPE svg PUBLIC "-//W3C//DTD SVG 20010904//EN"
 "http://www.w3.org/TR/2001/REC-SVG-20010904/DTD/svg10.dtd">
<svg version="1.0" xmlns="http://www.w3.org/2000/svg"
 width="300.000000pt" height="300.000000pt" viewBox="0 0 300.000000 300.000000"
 preserveAspectRatio="xMidYMid meet">
<metadata>
Created by potrace 1.10, written by Peter Selinger 2001-2011
</metadata>
<g transform="translate(0.000000,300.000000) scale(0.100000,-0.100000)"
fill="#000000" stroke="none">
<path d="M1275 2182 c-42 -8 -38 -22 6 -22 99 0 208 -88 269 -215 38 -79 38
-87 -1 -68 -51 25 -148 28 -189 5 -96 -53 -106 -172 -24 -285 104 -143 219
-141 278 6 18 45 22 72 20 130 l-3 72 43 -46 c53 -55 76 -123 76 -218 -1 -84
-14 -140 -51 -217 -16 -34 -29 -65 -29 -68 0 -3 -20 -35 -45 -70 -25 -36 -45
-70 -45 -75 0 -6 -4 -11 -8 -11 -5 0 -31 -22 -59 -49 -28 -27 -86 -77 -128
-110 -42 -34 -74 -61 -71 -61 11 0 82 36 94 48 7 6 18 12 23 12 14 0 39 26 39
40 0 6 11 15 25 20 14 5 28 17 31 25 4 8 12 15 18 15 7 0 22 11 34 25 38 44
122 163 122 173 0 5 6 15 13 21 8 6 25 42 38 81 13 38 26 70 29 70 3 0 5 51 5
113 0 101 -3 117 -27 162 -24 47 -103 135 -120 135 -4 0 -15 26 -24 58 -47
165 -227 326 -339 304z m262 -327 c48 -14 52 -18 58 -55 20 -121 -46 -260
-124 -260 -69 0 -149 92 -158 182 -5 53 -4 57 31 96 49 54 101 64 193 37z"/>
<path d="M1400 1108 c-38 -76 -58 -103 -125 -165 l-80 -74 28 -24 c19 -17 40
-25 67 -25 50 0 223 42 281 68 24 11 54 23 67 26 22 7 29 21 14 30 -4 3 -26 0
-48 -5 -21 -5 -48 -11 -59 -13 -11 -2 -71 -17 -132 -35 -153 -42 -169 -41
-112 6 58 49 119 114 119 127 0 5 10 30 21 54 23 47 31 113 14 118 -5 1 -30
-38 -55 -88z"/>
</g>
</svg>
